<?xml version="1.0" encoding="UTF-8"?>
<svg width="77px" height="17px" viewBox="0 0 77 17" version="1.1" xmlns="http://www.w3.org/2000/svg" xmlns:xlink="http://www.w3.org/1999/xlink">
    <!-- Generator: Sketch 64 (93537) - https://sketch.com -->
    <title>logo de onesait_nav</title>
    <desc>Created with Sketch.</desc>
    <g id="Page-1" stroke="none" stroke-width="1" fill="none" fill-rule="evenodd">
        <g id="D02" transform="translate(-224.000000, -199.000000)" fill="#193B47" fill-rule="nonzero">
            <g id="logo-de-onesait_nav" transform="translate(224.000000, 199.000000)">
                <path d="M56.0180357,5.10607143 C55.614985,4.73319751 55.1397064,4.44699717 54.6216071,4.26517857 C53.438959,3.87317335 52.1613982,3.87317335 50.97875,4.26517857 C50.4605769,4.4468402 49.985268,4.73305883 49.5823214,5.10607143 C49.1860908,5.47695679 48.8753276,5.9296352 48.6716071,6.43267857 C48.4575717,6.978587 48.354375,7.56164851 48.3680357,8.14785714 L48.3680357,12.2673214 C48.3680357,13.5908929 48.76875,14.6321429 49.5610714,15.36375 C50.3533929,16.0953571 51.425,16.4566071 52.7910714,16.4596791 C54.1571429,16.4626786 55.25,16.08625 56.0301786,15.36375 L56.0605357,15.3364286 L56.0605357,15.3910714 L56.0605357,15.3698214 L56.4460714,16.32 L57.2171429,16.32 L57.2171429,8.14178571 C57.2299171,7.55564484 57.1267509,6.97275619 56.9135714,6.42660714 C56.7121856,5.9278476 56.4069045,5.47768732 56.0180357,5.10607143 L56.0180357,5.10607143 Z M55.9785714,12.2673214 C55.975238,12.6266459 55.9293833,12.9843128 55.8419643,13.3328571 C55.7576154,13.6787583 55.5968315,14.0013634 55.3714286,14.2769643 C55.1126599,14.5810384 54.7861789,14.8201806 54.4182143,14.9751786 C53.9050594,15.1787195 53.3547651,15.2718144 52.8032143,15.2483929 C52.253382,15.2714626 51.7049327,15.1772949 51.1942857,14.9721429 C50.8276459,14.8176296 50.5014888,14.5808021 50.2410714,14.28 C50.0142387,14.0030295 49.8533392,13.6781163 49.7705357,13.3298214 C49.6829603,12.9823378 49.6371013,12.6256568 49.6339286,12.2673214 L49.6339286,8.14178571 C49.6339286,7.18857143 49.9101786,6.44482143 50.4596429,5.92875 C51.0091071,5.41267857 51.7923214,5.15767857 52.8032143,5.15141223 C53.8141071,5.14553571 54.6094643,5.41875 55.1558929,5.92875 C55.7300343,6.51734173 56.0288185,7.32108248 55.9785714,8.14178571 L55.9785714,12.2673214 Z" id="Shape"></path>
                <path d="M76.39375,14.5775 C75.8373898,15.0738775 75.1074207,15.3302941 74.3628571,15.2908929 C73.6403571,15.2908929 73.0969643,15.0875 72.7508929,14.68375 C72.4048214,14.28 72.2226786,13.5817857 72.2226786,12.55875 L72.2226786,5.23053571 L76.0841071,5.23053571 L76.1144643,5.23053571 L76.1144643,4.1225 L76.0841071,4.1225 L72.2226786,4.1225 L72.2226786,0.400714286 L71.0083929,0.400714286 L71.0083929,12.6316071 C71.0083929,13.9066071 71.29375,14.8719643 71.8583929,15.4942857 C72.4230357,16.1166071 73.2669643,16.4505357 74.3507143,16.4505357 C75.4344643,16.4505357 76.2480357,16.1833929 76.8369643,15.66125 L76.39375,14.5775 Z" id="Shape"></path>
                <path d="M65.5592857,15.215 L65.5592857,4.11035714 L61.03,4.11035714 L61.03,5.20321429 L64.3298214,5.20321429 L64.3298214,15.2210714 L61.03,15.2210714 L61.03,16.3108929 L68.0121429,16.3108929 C68.0516071,16.3108929 68.0819643,16.3108929 68.1183929,16.2957143 L68.1183929,15.2301786 C68.0819643,15.2301786 68.0516071,15.215 68.0121429,15.215 L65.5592857,15.215 Z" id="Shape"></path>
                <path d="M42.8096429,9.89339286 L38.99375,8.84303571 C38.5905246,8.73395959 38.2303447,8.50408006 37.9616071,8.18428571 C37.7414696,7.92209059 37.6191531,7.59162139 37.6155357,7.24928571 C37.5941747,6.86752442 37.6871886,6.48806985 37.8826786,6.15946429 C38.0504345,5.89832935 38.2867123,5.68830459 38.5657143,5.55232143 C38.8616055,5.39480911 39.183487,5.2919716 39.5158929,5.24875 C39.8631507,5.19249499 40.2144692,5.16507996 40.56625,5.16678571 C41.3902133,5.12305024 42.2098206,5.31243318 42.9310714,5.71321429 C43.49875,6.06232143 43.79625,6.64821429 43.8235714,7.44964286 C43.8235714,7.44964286 43.8235714,7.47089286 43.8235714,7.48303571 L45.0166071,7.48303571 C45.0166071,7.46785714 45.0166071,7.45875 45.0166071,7.44053571 C44.9832143,6.27785714 44.5582143,5.39142857 43.7567857,4.80857143 C42.9553571,4.22571429 41.9019643,3.96767857 40.60875,3.96767857 C40.0741336,3.96442157 39.540752,4.01938838 39.0180357,4.13160714 C38.5401212,4.23355423 38.0858564,4.42514894 37.6792857,4.69625 C37.2911202,4.95543743 36.972217,5.30560566 36.7503571,5.71625 C36.5033045,6.18320217 36.3809654,6.70601878 36.3951786,7.23410714 C36.3801134,7.8506813 36.5833156,8.45276186 36.9689286,8.93410714 C37.3809502,9.43469606 37.9500867,9.78131301 38.5839286,9.91767857 L42.415,11.0014286 C42.8575308,11.1121975 43.2480116,11.3728756 43.52,11.7391071 C43.7510015,12.0798533 43.8766355,12.4810376 43.88125,12.8926786 C43.9018536,13.3185041 43.7962467,13.7409317 43.5776786,14.1069643 C43.3941864,14.3961238 43.137631,14.631736 42.8339286,14.79 C42.5038139,14.9534658 42.1470147,15.0562898 41.7805357,15.0935714 C40.9540487,15.2040711 40.1154756,15.1866648 39.2942857,15.0419643 C38.9365732,14.9714445 38.5942697,14.8378125 38.2833929,14.6473214 C38.0155107,14.4759543 37.7927128,14.2427453 37.63375,13.9673214 C37.457896,13.6428463 37.3739271,13.2765317 37.3908929,12.9078571 C37.3908929,12.8866071 37.3908929,12.8683929 37.3908929,12.8471429 L36.1766071,12.8471429 C36.175166,12.8683685 36.175166,12.8896673 36.1766071,12.9108929 C36.2008929,14.08875 36.6289286,14.9751786 37.4455357,15.5489286 C38.2621429,16.1226786 39.3185714,16.4111173 40.6239286,16.4111173 C41.2006329,16.4123941 41.7760927,16.3574916 42.3421429,16.2471429 C42.8571549,16.1521296 43.3482621,15.9560993 43.7871429,15.6703571 C44.2003022,15.3856927 44.5387346,15.0056071 44.77375,14.5623214 C45.0230503,14.039617 45.1457666,13.4655545 45.1319643,12.8866071 C45.183543,11.4550586 44.2096234,10.1892181 42.8126786,9.87214286 L42.8096429,9.89339286 Z" id="Shape"></path>
                <path d="M31.8203571,5.10607143 C31.4173064,4.73319751 30.9420279,4.44699717 30.4239286,4.26517857 C29.2412804,3.87317335 27.9637196,3.87317335 26.7810714,4.26517857 C26.2628983,4.4468402 25.7875894,4.73305883 25.3846429,5.10607143 C24.9938966,5.47846801 24.6883895,5.93103285 24.4891071,6.43267857 C24.2750717,6.978587 24.171875,7.56164851 24.1855357,8.14785714 L24.1855357,12.2673214 C24.1855357,13.5908929 24.58625,14.6321429 25.3785714,15.36375 C26.1708929,16.0953571 27.2425,16.4566071 28.6085714,16.4596429 C28.9665617,16.4593681 29.3239345,16.4299255 29.6771429,16.3716071 L29.6953571,16.3716071 L29.7925,16.3533929 L29.89875,16.3321429 L29.9746429,16.3139286 L30.15375,16.2714286 L30.1780357,16.2714286 L30.345,16.2228571 L30.3753571,16.2228571 L30.5483929,16.1621429 L30.5483929,16.1621429 C30.9121386,16.0311553 31.2539808,15.8459055 31.5623214,15.6126786 L31.5623214,15.6126786 L31.68375,15.5125 L31.705,15.4973214 L31.705,15.4973214 L31.8233929,15.3910714 C32.178634,15.0616187 32.4609433,14.661422 32.6521429,14.21625 L31.5653571,13.5605357 C31.4767017,13.8178075 31.3464621,14.058802 31.1798214,14.2739286 L31.1798214,14.2739286 L31.1555357,14.3073214 C31.0235155,14.4681264 30.8691516,14.6092007 30.6971429,14.72625 C30.5424219,14.8338422 30.3777395,14.926349 30.2053571,15.0025 L30.1142857,15.0419643 L30.0748214,15.0419643 L29.9655357,15.0814286 L29.9382143,15.0814286 C29.8471429,15.10875 29.7560714,15.1330357 29.6558929,15.1542857 L29.6558929,15.1542857 C29.3043355,15.225969 28.9460764,15.2595558 28.5873214,15.2544643 C28.0374892,15.2775341 27.4890399,15.1833663 26.9783929,14.9782143 C26.6117531,14.823701 26.2855959,14.5868735 26.0251786,14.2860714 C25.7983459,14.0091009 25.6374463,13.6841877 25.5546429,13.3358929 C25.4670675,12.9884092 25.4212085,12.6317283 25.4180357,12.2733929 L25.4180357,10.9376786 L33.0073214,10.9376786 L33.0073214,8.14178571 C33.0200957,7.55564484 32.9169295,6.97275619 32.70375,6.42660714 C32.5059293,5.92893897 32.2048455,5.47886532 31.8203571,5.10607143 Z M31.7808929,9.65964286 L25.43625,9.65964286 L25.43625,8.14178571 C25.43625,7.18857143 25.7125,6.44482143 26.2619643,5.92875 C26.8114286,5.41267857 27.5946429,5.15767857 28.6055357,5.15160714 C29.6164286,5.14553571 30.4117857,5.41875 30.9582143,5.92875 C31.5323557,6.51734173 31.8311399,7.32108248 31.7808929,8.14178571 L31.7808929,9.65964286 Z" id="Shape"></path>
                <path d="M16.55375,3.97678571 C16.2043872,3.97959955 15.8567043,4.02548146 15.5185714,4.11339286 C15.160444,4.19246249 14.8129578,4.31372602 14.4833929,4.47464286 C14.1593639,4.62744627 13.8588276,4.82575936 13.5908929,5.06357143 C13.4979497,5.14338079 13.4107123,5.2296038 13.3298214,5.32160714 L13.3298214,5.32160714 L13.3298214,5.32160714 L13.3298214,5.32160714 L12.6953571,4.10732143 L12.1216071,4.10732143 L12.1216071,16.3503571 L13.3358929,16.3503571 L13.3358929,8.10535714 C13.3264092,7.69579751 13.4083362,7.28927372 13.5757143,6.91535714 C13.8957726,6.19385897 14.5070701,5.64214642 15.2575,5.3975 C15.6785755,5.24912815 16.1225149,5.17616589 16.5689286,5.18196429 C17.1135538,5.16302103 17.6562001,5.25707972 18.1626786,5.45821429 C18.5293332,5.61855781 18.8566774,5.85681466 19.1219643,6.15642857 C19.3469283,6.43430371 19.5094752,6.75732684 19.5985714,7.10357143 C19.6843402,7.45441494 19.7291629,7.81401582 19.7321429,8.17517857 L19.7321429,16.3716071 L20.9464286,16.3716071 L20.9464286,8.17517857 C20.9464286,6.83946429 20.5578571,5.80428571 19.7928571,5.08482143 C19.0278571,4.36535714 17.9167857,3.97678571 16.55375,3.97678571 Z" id="Shape"></path>
                <path d="M7.64696429,5.10607143 C7.24507925,4.73164854 6.76945877,4.44524228 6.25053571,4.26517857 C5.06813369,3.87165139 3.7900806,3.87165139 2.60767857,4.26517857 C2.08824074,4.4460701 1.61178944,4.73235428 1.20821429,5.10607143 C0.817468023,5.47846801 0.511960859,5.93103285 0.312678571,6.43267857 C0.0988779039,6.97865306 -0.00431040822,7.56166703 0.00910714286,8.14785714 L0.00910714286,12.2703571 C0.00910714286,13.5939286 0.409821429,14.6382143 1.20214286,15.3698214 C1.99446429,16.1014286 3.06910714,16.4596429 4.43517857,16.4626786 L4.43517857,16.4626786 C5.80125,16.4626786 6.89107143,16.0923214 7.66821429,15.3698214 C8.44535714,14.6473214 8.85821429,13.5939286 8.85821429,12.2703571 L8.85821429,8.14178571 C8.8701158,7.55571223 8.76697954,6.97299242 8.55464286,6.42660714 C8.35087126,5.92611274 8.04122871,5.4756294 7.64696429,5.10607143 Z M7.6075,12.2703571 C7.60319086,12.628804 7.55631482,12.9854698 7.46785714,13.3328571 C7.38566069,13.6813709 7.22469619,14.0064154 6.99732143,14.2830357 C6.7385266,14.58634 6.41198696,14.8244852 6.04410714,14.9782143 C5.53291294,15.1814279 4.9848801,15.2755241 4.43517857,15.2544643 L4.43517857,15.2544643 C3.88446214,15.27595 3.33535123,15.1818462 2.82321429,14.9782143 C2.4557799,14.8236953 2.12941069,14.5856745 1.87,14.2830357 C1.64508468,14.0048324 1.48441051,13.6803742 1.39946429,13.3328571 C1.31188889,12.9853735 1.26602991,12.6286926 1.26285714,12.2703571 L1.26285714,8.14178571 C1.26285714,7.18857143 1.53910714,6.44482143 2.09160714,5.92875 C2.64410714,5.41267857 3.42428571,5.15767857 4.43517857,5.15160714 L4.43517857,5.15160714 C5.44607143,5.15160714 6.23535714,5.41875 6.77875,5.92875 C7.32214286,6.43875 7.6075,7.18857143 7.6075,8.14178571 L7.6075,12.2703571 Z" id="Shape"></path>
            </g>
        </g>
    </g>
</svg>