<svg xmlns="http://www.w3.org/2000/svg" viewBox="0 0 125.72 98.11"><defs><style>.cls-1{fill:#2791af;}.cls-2{fill:#132e68;}</style></defs><title>Recurso 3</title><g id="Capa_2" data-name="Capa 2"><g id="Capa_1-2" data-name="Capa 1"><path class="cls-1" d="M125.72,98.11h-115V84.52H110V8.68h15.74Zm-110-5h105V13.68H115V89.52H15.74Z"/><path d="M115,89.43H0V0H115Zm-110-5H110V5H5Z"/><path class="cls-2" d="M115,89.43H0V0H115Zm-110-5H110V5H5Z"/><rect class="cls-1" x="52.89" y="68.31" width="41.04" height="3.92"/><rect class="cls-1" x="52.89" y="60.46" width="32.27" height="3.92"/><rect class="cls-1" x="52.89" y="52.61" width="13.5" height="3.92"/><path class="cls-2" d="M69.89,38.91,65.24,53.42l14.54-4.63,25.29-25.3-9.91-9.85Zm.18,10,2.4-6.15,3.86,3.79Zm9.23-4.43-4.83-4.76L89,24.91l5,4.9Zm12.15-22,3.72-3.73,5,4.9-3.72,3.73Z"/><path class="cls-2" d="M14.07,20.76V49.92c0,3.07,3.85,5,8.83,5.9l3.91.55c7.29.76,20.1-1,19.8-6.37V20.76C46.66,12,14,12,14.07,20.76Zm16.27-2.61c7.67,0,11.74,1.85,12.28,2.54-3.54,3.6-21.12,3.39-24.56.14C18.68,20,22.74,18.15,30.34,18.15ZM18,25.29c6.29,2.76,18.42,2.76,24.71,0v5.06c-.46.84-4.6,2.76-12.35,2.76S18.37,31.19,18,30.5ZM42.69,49.84C39.23,53.54,21.25,53.36,18,50V44.7a23.71,23.71,0,0,0,5.58,1.54l1.9.26c6,.68,13,.08,17.23-1.8v5.14ZM18,40.33V35c6.29,2.76,18.42,2.76,24.71,0v5.14a1.17,1.17,0,0,1-.16.15C38.73,43.87,21.21,43.64,18,40.33Z"/></g></g></svg>