<svg xmlns="http://www.w3.org/2000/svg" viewBox="0 0 125.72 98.11"><defs><style>.cls-1{fill:#2791af;}.cls-2,.cls-3{fill:#132e68;}.cls-2{fill-rule:evenodd;}</style></defs><title>Recurso 2</title><g id="Capa_2" data-name="Capa 2"><g id="Capa_1-2" data-name="Capa 1"><rect class="cls-1" x="59.32" y="26.38" width="40.54" height="3.73"/><rect class="cls-1" x="59.32" y="18.92" width="40.54" height="3.73"/><rect class="cls-1" x="59.32" y="33.83" width="40.54" height="3.73"/><path class="cls-2" d="M15.12,31.25A15.85,15.85,0,1,1,31,47.09,15.85,15.85,0,0,1,15.12,31.25Zm28.17,0A12.33,12.33,0,1,0,31,43.57,12.33,12.33,0,0,0,43.29,31.25ZM29.4,26h-.2V22.44h3.52V26H29.4Zm-.2,4.11v-.58h3.52V40.05H29.2v-10Z"/><rect class="cls-3" x="73.96" y="58.55" width="18.19" height="2.83"/><rect class="cls-3" x="73.96" y="53.72" width="18.19" height="2.83"/><path class="cls-3" d="M65.61,47V67.56l7,.14-.33,7.82,8.85-7.8H99.59V47Zm10,21.65.24-3.75H68.68V49.82H96.52V64.89H79.9Z"/><path class="cls-1" d="M125.72,98.11h-115V84.52H110V8.68h15.74Zm-110-5h105V13.68H115V89.52H15.74Z"/><path class="cls-3" d="M115,89.43H0V0H115Zm-110-5H110V5H5Z"/><polygon class="cls-1" points="24.21 51.86 26.84 57.2 32.73 58.05 28.47 62.2 29.47 68.06 24.21 65.3 18.94 68.06 19.95 62.2 15.69 58.05 21.57 57.2 24.21 51.86"/><polygon class="cls-1" points="42.35 51.86 44.98 57.2 50.87 58.05 46.61 62.2 47.61 68.06 42.35 65.3 37.08 68.06 38.09 62.2 33.83 58.05 39.71 57.2 42.35 51.86"/></g></g></svg>