<?xml version="1.0" standalone="no"?>
<!DOCTYPE svg PUBLIC "-//W3C//DTD SVG 20010904//EN"
 "http://www.w3.org/TR/2001/REC-SVG-20010904/DTD/svg10.dtd">
<svg version="1.0" xmlns="http://www.w3.org/2000/svg"
 width="512.000000pt" height="512.000000pt" viewBox="0 0 512.000000 512.000000"
 preserveAspectRatio="xMidYMid meet">

<g transform="translate(0.000000,512.000000) scale(0.100000,-0.100000)"
fill="#000000" stroke="none">
<path d="M131 5110 c-44 -10 -81 -39 -106 -81 -20 -34 -20 -55 -23 -2424 -2
-1314 0 -2413 3 -2442 7 -62 37 -109 85 -137 35 -21 43 -21 1190 -21 1147 0
1155 0 1190 21 51 30 80 78 80 134 0 56 -29 104 -80 134 -35 21 -46 21 -1092
24 l-1058 2 0 2240 0 2240 1058 2 c1046 3 1057 3 1092 24 107 63 107 205 0
268 -35 21 -44 21 -1170 23 -624 0 -1150 -2 -1169 -7z"/>
<path d="M3800 3823 c-29 -10 -80 -67 -91 -100 -6 -19 -8 -51 -4 -75 7 -38 38
-73 370 -412 200 -204 395 -402 434 -441 39 -38 71 -73 71 -77 0 -5 -753 -8
-1672 -8 -1652 0 -1673 0 -1706 -20 -97 -59 -97 -206 0 -265 33 -20 55 -20
1707 -25 l1674 -5 -430 -436 c-474 -479 -470 -474 -443 -561 15 -53 69 -105
116 -114 82 -15 73 -23 681 594 313 317 577 588 586 602 23 34 22 116 -2 155
-23 37 -1120 1152 -1158 1177 -27 17 -99 23 -133 11z"/>
</g>
</svg>
