<svg xmlns="http://www.w3.org/2000/svg" viewBox="0 0 125.72 98.11"><defs><style>.cls-1{fill:#2791af;}.cls-2{fill:#132e68;}</style></defs><title>Recurso 1</title><g id="Capa_2" data-name="Capa 2"><g id="Capa_1-2" data-name="Capa 1"><path class="cls-1" d="M35.53,37,47.05,25.47c-.2-.33-.41-.64-.62-.95L34.62,36.32Z"/><path class="cls-1" d="M33.57,35.57,45.65,23.49c-.23-.29-.48-.57-.73-.85L32.66,34.9Z"/><path class="cls-1" d="M31.75,30.63,42.2,20.19c-.31-.23-.62-.44-.94-.65l-9.51,9.51v1.58Z"/><path class="cls-1" d="M31.75,27.25l8.39-8.39c-.34-.18-.69-.36-1-.53l-7.34,7.35Z"/><path class="cls-1" d="M31.75,23.87l6.09-6.08c-.39-.15-.78-.28-1.17-.41L31.75,22.3Z"/><path class="cls-1" d="M31.75,20.49,35.25,17c-.44-.1-.88-.18-1.33-.25l-2.17,2.17Z"/><path class="cls-1" d="M31.75,34,44,21.73c-.27-.26-.54-.51-.83-.75L31.75,32.43Z"/><path class="cls-1" d="M32.29,16.57l-.54,0v.57Z"/><path class="cls-1" d="M37.48,38.42,48.22,27.68c-.16-.36-.33-.72-.51-1.06L36.57,37.75Z"/><path class="cls-1" d="M41.39,41.27,49.69,33c-.06-.46-.13-.92-.22-1.36l-9,9Z"/><path class="cls-1" d="M39.44,39.85l9.68-9.69c-.12-.4-.24-.8-.38-1.19L38.52,39.18Z"/><path class="cls-1" d="M45.3,44.13l3.84-3.84a19.66,19.66,0,0,0,.45-2l-5.2,5.2Z"/><path class="cls-1" d="M43.34,42.7l6.46-6.45q0-.49,0-1c0-.2,0-.4,0-.6L42.43,42Z"/><path class="cls-1" d="M46.9,45.3a18,18,0,0,0,1.18-2.15l-1.74,1.74Z"/><rect class="cls-1" x="66.17" y="30.66" width="4.85" height="15.88"/><rect class="cls-1" x="73.7" y="31.98" width="4.85" height="14.55"/><rect class="cls-1" x="81.23" y="34.63" width="4.85" height="11.91"/><rect class="cls-1" x="88.75" y="28.01" width="4.85" height="18.53"/><rect class="cls-1" x="96.28" y="28.01" width="4.85" height="18.53"/><path class="cls-2" d="M31.06,54a18.74,18.74,0,0,1-.7-37.46V35h0L46,46.47h0A18.72,18.72,0,0,1,31.06,54Z"/><path class="cls-1" d="M93.9,62a3.35,3.35,0,0,0-.44.07l-7-8.13a3.17,3.17,0,0,0-6.09-1.74,3.32,3.32,0,0,0-.13,1.16L68.94,67a2.46,2.46,0,0,0-.39-.22,3.26,3.26,0,0,0-1.42-.09l-6.31-8.75a3.22,3.22,0,0,0,.37-1.16,3.17,3.17,0,1,0-6.3-.74A3.21,3.21,0,0,0,55,57.17L44.37,67.65a3.45,3.45,0,0,0-.42-.14,3.23,3.23,0,0,0-1.42.19L38,63.8c0-.06,0-.11.06-.18a3.18,3.18,0,1,0-6.2.53l-7.19,7.56a1.93,1.93,0,0,0-.34-.11,3.18,3.18,0,1,0,2.79,3.52A3.12,3.12,0,0,0,27,73.86l7.19-7.57a1.93,1.93,0,0,0,.34.11,3.06,3.06,0,0,0,1.41-.18l4.58,3.9c0,.06,0,.11-.06.18a3.18,3.18,0,0,0,6.31.74,3,3,0,0,0-.1-1.16L57.25,59.4a2.92,2.92,0,0,0,.42.13,2.81,2.81,0,0,0,.41,0l6.58,9.11a1,1,0,0,0-.1.17,3.18,3.18,0,0,0,6.06,1.92,3,3,0,0,0,.12-1.15L82,56a3,3,0,0,0,.39.22,3.14,3.14,0,0,0,1.82,0L90.88,64a2.84,2.84,0,0,0,.2,2.82,3.21,3.21,0,0,0,2.49,1.61A3.17,3.17,0,1,0,93.9,62Z"/><path class="cls-1" d="M125.72,98.11h-115V84.52H110V8.68h15.74Zm-110-5h105V13.68H115V89.52H15.74Z"/><path class="cls-2" d="M115,89.43H0V0H115Zm-110-5H110V5H5Z"/></g></g></svg>