<svg xmlns="http://www.w3.org/2000/svg" viewBox="0 0 125.72 98.11"><defs><style>.cls-1{fill:#2791af;}.cls-2{fill:#132e68;}.cls-3{fill:none;stroke:#132e68;stroke-miterlimit:10;stroke-width:3px;}</style></defs><title>Recurso 4</title><g id="Capa_2" data-name="Capa 2"><g id="Capa_1-2" data-name="Capa 1"><path class="cls-1" d="M125.72,98.11h-115V84.52H110V8.68h15.74Zm-110-5h105V13.68H115V89.52H15.74Z"/><path class="cls-2" d="M115,89.43H0V0H115Zm-110-5H110V5H5Z"/><polygon class="cls-1" points="49.98 14.71 52.62 20.05 58.5 20.9 54.24 25.06 55.25 30.92 49.98 28.15 44.72 30.92 45.72 25.06 41.46 20.9 47.35 20.05 49.98 14.71"/><polygon class="cls-1" points="68.13 14.71 70.76 20.05 76.64 20.9 72.38 25.06 73.39 30.92 68.13 28.15 62.86 30.92 63.86 25.06 59.6 20.9 65.49 20.05 68.13 14.71"/><polygon class="cls-1" points="86.33 14.71 88.96 20.05 94.85 20.9 90.59 25.06 91.59 30.92 86.33 28.15 81.06 30.92 82.07 25.06 77.81 20.9 83.69 20.05 86.33 14.71"/><polygon class="cls-1" points="49.98 36.22 52.62 41.55 58.5 42.4 54.24 46.56 55.25 52.42 49.98 49.65 44.72 52.42 45.72 46.56 41.46 42.4 47.35 41.55 49.98 36.22"/><polygon class="cls-1" points="68.13 36.22 70.76 41.55 76.64 42.4 72.38 46.56 73.39 52.42 68.13 49.65 62.86 52.42 63.86 46.56 59.6 42.4 65.49 41.55 68.13 36.22"/><polygon class="cls-1" points="49.98 57.72 52.62 63.05 58.5 63.91 54.24 68.06 55.25 73.92 49.98 71.16 44.72 73.92 45.72 68.06 41.46 63.91 47.35 63.05 49.98 57.72"/><rect class="cls-3" x="21.59" y="37.75" width="13.14" height="13.14"/><rect class="cls-3" x="21.59" y="59.25" width="13.14" height="13.14" rx="6.57"/><polygon class="cls-3" points="28.16 18.87 22.92 27.95 33.41 27.95 28.16 18.87"/></g></g></svg>